<?xml version="1.0" encoding="UTF-8" standalone="no"?>
<!-- Generator: Adobe Illustrator 23.0.2, SVG Export Plug-In . SVG Version: 6.00 Build 0)  -->

<svg
   xmlns:dc="http://purl.org/dc/elements/1.1/"
   xmlns:cc="http://creativecommons.org/ns#"
   xmlns:rdf="http://www.w3.org/1999/02/22-rdf-syntax-ns#"
   xmlns:svg="http://www.w3.org/2000/svg"
   xmlns="http://www.w3.org/2000/svg"
   xmlns:sodipodi="http://sodipodi.sourceforge.net/DTD/sodipodi-0.dtd"
   xmlns:inkscape="http://www.inkscape.org/namespaces/inkscape"
   version="1.1"
   id="Layer_1"
   x="0px"
   y="0px"
   viewBox="0 0 1200 177.3"
   xml:space="preserve"
   sodipodi:docname="lykke_business_logo_01.svg"
   width="1200"
   height="177.3"
   inkscape:version="0.92.4 (5da689c313, 2019-01-14)"><metadata
   id="metadata68"><rdf:RDF><cc:Work
       rdf:about=""><dc:format>image/svg+xml</dc:format><dc:type
         rdf:resource="http://purl.org/dc/dcmitype/StillImage" /></cc:Work></rdf:RDF></metadata><defs
   id="defs66" /><sodipodi:namedview
   pagecolor="#ffffff"
   bordercolor="#666666"
   borderopacity="1"
   objecttolerance="10"
   gridtolerance="10"
   guidetolerance="10"
   inkscape:pageopacity="0"
   inkscape:pageshadow="2"
   inkscape:window-width="3840"
   inkscape:window-height="2066"
   id="namedview64"
   showgrid="false"
   inkscape:zoom="0.81666667"
   inkscape:cx="87.894885"
   inkscape:cy="-383.98685"
   inkscape:window-x="-11"
   inkscape:window-y="-11"
   inkscape:window-maximized="1"
   inkscape:current-layer="Layer_1" />
<style
   type="text/css"
   id="style2">
	.st0{fill-rule:evenodd;clip-rule:evenodd;fill:url(#SVGID_1_);}
	.st1{fill-rule:evenodd;clip-rule:evenodd;fill:#FF8F1C;}
	.st2{fill-rule:evenodd;clip-rule:evenodd;fill:url(#SVGID_2_);}
	.st3{fill-rule:evenodd;clip-rule:evenodd;fill:#333333;}
	.st4{fill-rule:evenodd;clip-rule:evenodd;fill:url(#SVGID_3_);}
	.st5{fill-rule:evenodd;clip-rule:evenodd;fill:url(#SVGID_4_);}
	.st6{fill-rule:evenodd;clip-rule:evenodd;fill:#FFFFFF;}
	.st7{fill-rule:evenodd;clip-rule:evenodd;fill:url(#SVGID_5_);}
	.st8{fill-rule:evenodd;clip-rule:evenodd;fill:url(#SVGID_6_);}
	.st9{fill-rule:evenodd;clip-rule:evenodd;fill:url(#SVGID_7_);}
	.st10{fill-rule:evenodd;clip-rule:evenodd;fill:url(#SVGID_8_);}
	.st11{enable-background:new    ;}
	.st12{fill:#FFFFFF;}
	.st13{fill-rule:evenodd;clip-rule:evenodd;fill:url(#SVGID_9_);}
	.st14{fill-rule:evenodd;clip-rule:evenodd;fill:url(#SVGID_10_);}
	.st15{fill:#333333;}
	.st16{fill-rule:evenodd;clip-rule:evenodd;fill:url(#SVGID_11_);}
	.st17{fill-rule:evenodd;clip-rule:evenodd;fill:url(#SVGID_12_);}
</style>
<g
   id="g61"
   transform="translate(-360,-458.7)">
	<g
   id="g39">
		<g
   transform="translate(-40,-25)"
   id="g37">
			<g
   id="logo_updated-copy_5_"
   transform="translate(40,25)">
				<g
   id="Group_5_">
					<g
   id="Shape_5_">
						
							<linearGradient
   id="SVGID_1_"
   gradientUnits="userSpaceOnUse"
   x1="30.452801"
   y1="-2543.1248"
   x2="30.452801"
   y2="-2536.7744"
   gradientTransform="matrix(23.9584,0,0,19.5222,-276.7344,50181.898)">
							<stop
   offset="0"
   style="stop-color:#FF0029"
   id="stop4" />
							<stop
   offset="1"
   style="stop-color:#AB00FF"
   id="stop6" />
						</linearGradient>
						<polygon
   class="st0"
   points="503.5,636 503.5,605.2 452.9,553.7 402.2,605.2 402.2,605.2 402.2,605.2 402.2,636 452.9,584.5 "
   id="polygon9"
   style="clip-rule:evenodd;fill:url(#SVGID_1_);fill-rule:evenodd" />
						<polygon
   class="st1"
   points="452.9,553.7 381.5,553.7 381.5,553.7 381.5,553.7 360,531.8 431.8,531.8 "
   id="polygon11"
   style="clip-rule:evenodd;fill:#ff8f1c;fill-rule:evenodd" />
						
							<linearGradient
   id="SVGID_2_"
   gradientUnits="userSpaceOnUse"
   x1="30.4289"
   y1="-2570.3657"
   x2="35.735699"
   y2="-2564.5999"
   gradientTransform="matrix(22.0159,0,0,22.4778,-240.4539,58241.445)">
							<stop
   offset="0"
   style="stop-color:#FF9100"
   id="stop13" />
							<stop
   offset="0.5153"
   style="stop-color:#FF0029"
   id="stop15" />
							<stop
   offset="1"
   style="stop-color:#AB00FF"
   id="stop17" />
						</linearGradient>
						<polygon
   class="st2"
   points="474.4,480.7 452.9,458.7 452.9,553.7 524.6,553.7 524.6,553.7 524.6,553.7 545.7,531.8 474.4,531.8 "
   id="polygon20"
   style="clip-rule:evenodd;fill:url(#SVGID_2_);fill-rule:evenodd" />
					</g>
					<g
   transform="translate(53.706522,10.111111)"
   id="g33">
						<path
   class="st3"
   d="m 909.1,561.4 c 0,-24.5 -14.4,-41.4 -36.3,-41.4 -21.1,0 -37.1,16.9 -37.1,39.3 0,23.2 15.6,39.3 38.4,39.3 11.8,0 22.8,-3.8 29.5,-10.1 l 0.8,-0.8 -9.3,-14.4 -0.8,0.8 c -4.6,4.6 -12.7,6.8 -17.7,6.8 -9.7,0 -16.9,-5.5 -19,-14.4 h 51.9 v -5.1 z m -20.3,-9.7 h -31.7 c 1.3,-6.8 5.9,-13.5 16,-13.5 5.2,-0.5 14.5,2.5 15.7,13.5 z"
   id="path23"
   inkscape:connector-curvature="0"
   style="clip-rule:evenodd;fill:#333333;fill-rule:evenodd" />
						<polygon
   class="st3"
   points="553.7,492.6 532.6,492.6 532.6,596.8 602.6,596.8 594.6,576.2 553.7,576.2 "
   id="polygon25"
   style="clip-rule:evenodd;fill:#333333;fill-rule:evenodd" />
						<polygon
   class="st3"
   points="832.3,522.5 806.9,522.5 783.7,551.3 783.7,492.6 762.6,492.6 762.6,596.8 783.7,596.8 783.7,562.6 809.9,596.8 833.1,596.8 804,556.7 "
   id="polygon27"
   style="clip-rule:evenodd;fill:#333333;fill-rule:evenodd" />
						<polygon
   class="st3"
   points="751.2,522.5 725.9,522.5 702.7,551.3 702.7,492.6 681.6,492.6 681.6,596.8 702.7,596.8 702.7,562.6 728.9,596.8 752.1,596.8 722.9,556.7 "
   id="polygon29"
   style="clip-rule:evenodd;fill:#333333;fill-rule:evenodd" />
						<polygon
   class="st3"
   points="615.3,521.3 592.5,521.3 621.2,593.5 609.8,623 631.8,623 672.3,521.3 649.1,521.3 632.2,566 "
   id="polygon31"
   style="clip-rule:evenodd;fill:#333333;fill-rule:evenodd" />
					</g>
				</g>
			</g>
		</g>
	</g>
	<g
   class="st11"
   id="g59"
   style="enable-background:new">
		<path
   class="st15"
   d="m 980.8,590 h 16.8 v 16.8 h -16.8 z"
   id="path41"
   inkscape:connector-curvature="0"
   style="fill:#333333" />
		<path
   class="st15"
   d="m 1017.9,502.8 h 23 c 21.5,0 34,10.4 34,26.5 0,12 -7.9,18.9 -16.9,22.1 v 0.3 c 16.3,1.7 24.4,13.1 24.4,26.4 0,19.7 -15.4,28.7 -34.6,28.7 h -29.9 z m 23,11.6 h -10.4 v 32.8 h 11.3 c 12.5,0 20.1,-6.9 20.1,-16.8 0.1,-11.3 -9.1,-16 -21,-16 z m 5.7,44.4 h -16 v 36.5 h 18.2 c 14,0 20.6,-7.3 20.6,-18 -0.1,-11.5 -8.2,-18.5 -22.8,-18.5 z"
   id="path43"
   inkscape:connector-curvature="0"
   style="fill:#333333" />
		<path
   class="st15"
   d="m 1160.8,606.8 h -12 v -9 h -0.3 c -6.4,8.7 -14.5,11.6 -22.1,11.6 -12.8,0 -27.8,-8.2 -27.8,-32.9 v -42.7 h 12 v 41.8 c 0,14.8 7,22.9 17.7,22.9 12.5,0 20.4,-8.7 20.4,-25.6 v -39 h 12 v 72.9 z"
   id="path45"
   inkscape:connector-curvature="0"
   style="fill:#333333" />
		<path
   class="st15"
   d="m 1216.2,551.3 c -1.2,-5.6 -5.9,-9.8 -11.7,-9.8 -7.5,0 -11.6,4.4 -11.6,9.8 0,4.6 2.1,8.4 15.4,12.7 16.2,5.2 21.2,13.6 21.2,23.3 0,13.4 -9.8,22.1 -24.7,22.1 -16.2,0 -24.3,-9.5 -26.5,-22.1 h 12.2 c 1.4,6.4 5.8,11.7 14.8,11.7 8.1,0 12.2,-4.7 12.2,-10.8 0,-6.3 -2.7,-10.4 -16.3,-14.8 -13.7,-4.4 -20.1,-11.3 -20.1,-22.3 0,-10.7 7.9,-19.8 22.9,-19.8 14.9,0 22.1,9.2 24.6,20 z"
   id="path47"
   inkscape:connector-curvature="0"
   style="fill:#333333" />
		<path
   class="st15"
   d="m 1245.3,502 h 14.9 v 14.2 h -14.9 z m 1.4,31.8 h 12 v 73.1 h -12 z"
   id="path49"
   inkscape:connector-curvature="0"
   style="fill:#333333" />
		<path
   class="st15"
   d="m 1279.8,533.8 h 12 v 9.2 h 0.3 c 6.7,-8.7 15.1,-11.6 23,-11.6 13.3,0 28.8,8.2 28.8,32.9 v 42.6 h -12 V 565 c 0,-14.8 -7.2,-22.9 -18.6,-22.9 -13.1,0 -21.5,8.8 -21.5,25.8 v 38.9 h -12 z"
   id="path51"
   inkscape:connector-curvature="0"
   style="fill:#333333" />
		<path
   class="st15"
   d="m 1431.6,569.3 c 0,1.4 -0.1,3.7 -0.3,4.4 h -59.6 c 0,13.3 12.2,25 25.9,25 8.7,0 14,-3.2 18.8,-8.8 h 13.9 c -4.9,9.2 -15.1,19.5 -32.3,19.5 -23.2,0 -38.7,-17.4 -38.7,-40.1 0,-20.1 14.2,-38 36.3,-38 26.4,0.2 36,22 36,38 z m -59.8,-5.7 h 47.1 c -1.2,-11.4 -10.2,-21.8 -23.5,-21.8 -13.9,0 -22.6,10.7 -23.6,21.8 z"
   id="path53"
   inkscape:connector-curvature="0"
   style="fill:#333333" />
		<path
   class="st15"
   d="m 1481.9,551.3 c -1.2,-5.6 -5.9,-9.8 -11.7,-9.8 -7.5,0 -11.6,4.4 -11.6,9.8 0,4.6 2.1,8.4 15.4,12.7 16.2,5.2 21.2,13.6 21.2,23.3 0,13.4 -9.8,22.1 -24.7,22.1 -16.2,0 -24.3,-9.5 -26.5,-22.1 h 12.2 c 1.4,6.4 5.8,11.7 14.8,11.7 8.1,0 12.2,-4.7 12.2,-10.8 0,-6.3 -2.7,-10.4 -16.3,-14.8 -13.7,-4.4 -20.1,-11.3 -20.1,-22.3 0,-10.7 7.9,-19.8 22.9,-19.8 14.9,0 22.1,9.2 24.6,20 z"
   id="path55"
   inkscape:connector-curvature="0"
   style="fill:#333333" />
		<path
   class="st15"
   d="m 1546.7,551.3 c -1.2,-5.6 -6,-9.8 -11.7,-9.8 -7.5,0 -11.6,4.4 -11.6,9.8 0,4.6 2.1,8.4 15.4,12.7 16.2,5.2 21.2,13.6 21.2,23.3 0,13.4 -9.8,22.1 -24.7,22.1 -16.2,0 -24.2,-9.5 -26.5,-22.1 h 12.2 c 1.4,6.4 5.8,11.7 14.8,11.7 8.1,0 12.2,-4.7 12.2,-10.8 0,-6.3 -2.7,-10.4 -16.3,-14.8 -13.7,-4.4 -20.1,-11.3 -20.1,-22.3 0,-10.7 7.9,-19.8 22.9,-19.8 14.9,0 22.1,9.2 24.6,20 z"
   id="path57"
   inkscape:connector-curvature="0"
   style="fill:#333333" />
	</g>
</g>
</svg>