<svg xmlns="http://www.w3.org/2000/svg" width="24" height="25" viewBox="0 0 24 25">
    <path fill="#4e3a96" fill-rule="evenodd" d="M16 5.07c1.38 0 2.5 1.102 2.5 2.463 0 1.25-.944 2.282-2.168 2.442l3.424-.001c.414 0 .75.33.75.739v2.023c0 .21-.091.41-.25.55l-5.751 5.067v2.994c0 .239-.116.46-.308.598l-.087.054-3.467 1.83c-.5.263-1.104-.094-1.104-.652l-.001-4.83L3.6 13.007a.736.736 0 0 1-.237-.443l-.007-.103v-1.747c0-.408.336-.739.75-.739h1.093A2.425 2.425 0 0 1 5 9.012c0-1.36 1.12-2.464 2.5-2.464S10 7.65 10 9.011c0 .342-.07.668-.199.964h5.867c-1.224-.16-2.168-1.192-2.168-2.442 0-1.36 1.12-2.464 2.5-2.464zm3.005 6.383H7.825a2.56 2.56 0 0 1-.65 0h-2.32v.682l5.94 5.34c.13.118.212.275.236.444l.008.103-.001 3.921 1.967-1.038v-2.883c0-.176.064-.344.177-.476l.074-.075 5.749-5.065v-.953zM7.5 7.533c-.828 0-1.5.662-1.5 1.478 0 .368.137.705.363.964h2.274A1.46 1.46 0 0 0 9 9.01a1.49 1.49 0 0 0-1.5-1.478zM16 6.055c-.828 0-1.5.662-1.5 1.478A1.49 1.49 0 0 0 16 9.01c.828 0 1.5-.662 1.5-1.478A1.49 1.49 0 0 0 16 6.055zm-4.5-2.956c1.105 0 2 .882 2 1.97 0 1.089-.895 1.971-2 1.971s-2-.882-2-1.97c0-1.09.895-1.971 2-1.971zm0 .985c-.552 0-1 .441-1 .985 0 .545.448.986 1 .986s1-.441 1-.986a.993.993 0 0 0-1-.985zM15 1.128c.828 0 1.5.662 1.5 1.478A1.49 1.49 0 0 1 15 4.084a1.49 1.49 0 0 1-1.5-1.478A1.49 1.49 0 0 1 15 1.128zm0 .985c-.276 0-.5.22-.5.493 0 .272.224.493.5.493s.5-.221.5-.493a.496.496 0 0 0-.5-.493z"/>
</svg>
