<svg xmlns="http://www.w3.org/2000/svg" width="24" height="25" viewBox="0 0 24 25">
    <g fill="none" fill-rule="evenodd">
        <path d="M0 .635h24v23.65H0z"/>
        <path fill="#4e3a96" d="M12 2.606c-5.52 0-10 4.414-10 9.854 0 5.44 4.48 9.854 10 9.854s10-4.415 10-9.854c0-5.44-4.48-9.854-10-9.854zM7.07 18.648c.43-.887 3.05-1.754 4.93-1.754s4.51.867 4.93 1.754A7.966 7.966 0 0 1 12 20.343c-1.86 0-3.57-.63-4.93-1.695zm11.29-1.429c-1.43-1.714-4.9-2.296-6.36-2.296s-4.93.582-6.36 2.296A7.76 7.76 0 0 1 4 12.46c0-4.345 3.59-7.882 8-7.882s8 3.537 8 7.883a7.76 7.76 0 0 1-1.64 4.76zM12 6.547c-1.94 0-3.5 1.538-3.5 3.45 0 1.911 1.56 3.448 3.5 3.448s3.5-1.537 3.5-3.449c0-1.911-1.56-3.449-3.5-3.449zm0 4.927c-.83 0-1.5-.66-1.5-1.478s.67-1.478 1.5-1.478 1.5.66 1.5 1.478-.67 1.478-1.5 1.478z"/>
    </g>
</svg>
